<?xml version="1.0" ?><svg id="Icons" style="enable-background:new 0 0 32 32;" version="1.1" viewBox="0 0 32 32" xml:space="preserve" xmlns="http://www.w3.org/2000/svg" xmlns:xlink="http://www.w3.org/1999/xlink">

<style type="text/css">.st0{fill:none;stroke:#e5e5e5;stroke-width:1;stroke-linecap:round;stroke-linejoin:round;stroke-miterlimit:10;}</style>
<circle class="st0" cx="13" cy="16" r="2"/>
<circle class="st0" cx="24" cy="24" r="7"/>
<line class="st0" x1="21.9" x2="26.1" y1="21.9" y2="26.1"/>
<line class="st0" x1="21.9" x2="26.1" y1="26.1" y2="21.9"/>
<circle class="st0" cx="8" cy="11" r="2"/>
<circle class="st0" cx="8" cy="21" r="2"/>
<circle class="st0" cx="18" cy="11" r="2"/>
<path  fill="#e5e5e5" class="st0" d="M22.4,8.5l1.3,1.3c1.5,1.5,3.8,1.5,5.3,0l0,0c1.5-1.5,1.5-3.8,0-5.3"/>
<path fill="#e5e5e5"  class="st0" d="M17.7,27c-1.4,0.6-3,1-4.7,1C6.4,28,1,22.6,1,16S6.4,4,13,4s12,5.4,12,12c0,0.4,0,0.7,0,1.1"/></svg>