<?xml version="1.0" ?><!DOCTYPE svg  PUBLIC '-//W3C//DTD SVG 1.1//EN'  'http://www.w3.org/Graphics/SVG/1.1/DTD/svg11.dtd'><svg enable-background="new 0 0 91 91" height="91px" id="Layer_1" version="1.1" viewBox="0 0 91 91" width="91px" xml:space="preserve" xmlns="http://www.w3.org/2000/svg" xmlns:xlink="http://www.w3.org/1999/xlink"><g><g><path  fill="#e5e5e5" d="M18.986,64.229c10.325,0,18.726-8.402,18.726-18.731c0-10.327-8.4-18.728-18.726-18.728    c-10.33,0-18.735,8.401-18.735,18.728C0.251,55.827,8.656,64.229,18.986,64.229z M18.986,31.796c7.555,0,13.7,6.147,13.7,13.703    c0,7.557-6.146,13.706-13.7,13.706c-7.56,0-13.709-6.148-13.709-13.706C5.277,37.943,11.427,31.796,18.986,31.796z"/><path  fill="#e5e5e5" d="M62.962,45.5c0-5.058-3.879-9.222-8.817-9.684c-4.22-13.924-16.984-23.485-31.722-23.485    c-5.64,0-11.217,1.448-16.127,4.186c-1.212,0.676-1.646,2.206-0.971,3.418c0.677,1.213,2.206,1.646,3.418,0.971    c4.164-2.322,8.895-3.549,13.68-3.549c12.292,0,22.969,7.836,26.729,19.323c-3.33,1.546-5.65,4.914-5.65,8.821    s2.319,7.273,5.649,8.82c-3.766,11.482-14.447,19.322-26.729,19.322c-4.789,0-9.521-1.227-13.683-3.549    c-1.213-0.675-2.742-0.241-3.418,0.971c-0.676,1.212-0.241,2.742,0.97,3.418c4.909,2.738,10.487,4.186,16.131,4.186    c14.724,0,27.499-9.564,31.725-23.484C59.085,54.72,62.962,50.556,62.962,45.5z M53.232,40.795c2.594,0,4.704,2.11,4.704,4.705    s-2.11,4.704-4.704,4.704c-2.595,0-4.705-2.109-4.705-4.704S50.638,40.795,53.232,40.795z"/><path fill="#e5e5e5"  d="M74.481,39.748c-0.772-7.098-2.936-13.849-6.477-20.085c-2.83-4.983-6.435-9.446-10.715-13.265    c-1.038-0.924-2.626-0.833-3.548,0.202c-0.924,1.036-0.833,2.624,0.202,3.548c3.871,3.454,7.132,7.49,9.691,11.996    c3.171,5.586,5.121,11.629,5.836,17.982c-1.899,1.041-3.19,3.059-3.19,5.374c0,2.314,1.291,4.332,3.189,5.373    c-1.305,11.561-6.791,22.183-15.526,29.98c-1.035,0.924-1.126,2.512-0.201,3.547c0.496,0.557,1.184,0.84,1.875,0.84    c0.596,0,1.193-0.211,1.672-0.639c9.709-8.667,15.79-20.488,17.194-33.353c2.353-0.854,4.04-3.105,4.04-5.749    C78.524,42.854,76.835,40.602,74.481,39.748z M72.404,44.402c0.604,0.002,1.095,0.493,1.095,1.097    c0,0.604-0.492,1.096-1.098,1.096c-0.604,0-1.095-0.492-1.095-1.096c0-0.59,0.469-1.065,1.052-1.089    C72.374,44.41,72.389,44.404,72.404,44.402z"/><path fill="#e5e5e5" d="M86.646,41.402c-2.261,0-4.101,1.838-4.101,4.097s1.84,4.097,4.101,4.097c2.262,0,4.102-1.838,4.102-4.097    S88.908,41.402,86.646,41.402z"/></g></g></svg>